clouds<svg xmlns="http://www.w3.org/2000/svg" version="1.1" xmlns:xlink="http://www.w3.org/1999/xlink" xmlns:svgjs="http://svgjs.com/svgjs" width="1440" height="560" preserveAspectRatio="none" viewBox="0 0 1440 560"><g mask="url(&quot;#SvgjsMask1088&quot;)" fill="none"><rect width="1440" height="560" x="0" y="0" fill="rgba(227, 237, 255, 1)"></rect><path d="M1464 560L0 560 L0 387.53Q50.09 317.62, 120 367.7Q149.39 325.09, 192 354.47Q275.13 317.61, 312 400.74Q356.6 325.34, 432 369.93Q491.31 357.24, 504 416.55Q558.48 351.03, 624 405.52Q649.93 359.45, 696 385.39Q776.21 345.6, 816 425.81Q816.33 354.14, 888 354.47Q918.44 312.92, 960 343.36Q1027.33 338.69, 1032 406.01Q1080.71 382.73, 1104 431.44Q1132.62 340.06, 1224 368.68Q1298.1 322.78, 1344 396.88Q1384.64 317.52, 1464 358.16z" fill="rgba(145, 179, 240, 1)"></path><path d="M1560 560L0 560 L0 456.2Q62.64 398.84, 120 461.47Q170.83 392.3, 240 443.13Q314.59 397.72, 360 472.31Q393.51 385.82, 480 419.33Q558.01 377.35, 600 455.36Q667.97 403.33, 720 471.29Q798.47 429.76, 840 508.23Q871.22 419.45, 960 450.67Q988.53 407.2, 1032 435.72Q1081.3 413.01, 1104 462.31Q1152.38 438.69, 1176 487.06Q1246.77 437.83, 1296 508.6Q1314.84 455.44, 1368 474.27Q1375.48 409.75, 1440 417.23Q1510.43 367.66, 1560 438.09z" fill="rgba(181, 202, 240, 1)"></path><path d="M1488 560L0 560 L0 526.13Q83.69 489.82, 120 573.51Q122.24 503.75, 192 505.98Q245.94 439.92, 312 493.85Q409.8 471.65, 432 569.45Q485.64 503.09, 552 556.73Q624.63 509.37, 672 582Q694.86 484.86, 792 507.71Q864.66 460.38, 912 533.04Q999.3 500.34, 1032 587.64Q1057.04 492.68, 1152 517.72Q1200.43 446.15, 1272 494.59Q1327.13 477.72, 1344 532.84Q1366.19 483.03, 1416 505.22Q1471.63 488.85, 1488 544.48z" fill="rgba(255, 255, 255, 1)"></path></g><defs><mask id="SvgjsMask1088"><rect width="1440" height="560" fill="#ffffff"></rect></mask></defs></svg>