<svg xmlns="http://www.w3.org/2000/svg" version="1.1" xmlns:xlink="http://www.w3.org/1999/xlink" xmlns:svgjs="http://svgjs.com/svgjs" width="1440" height="560" preserveAspectRatio="none" viewBox="0 0 1440 560"><g mask="url(&quot;#SvgjsMask1455&quot;)" fill="none"><rect width="1440" height="560" x="0" y="0" fill="url(#SvgjsLinearGradient1456)"></rect><path d="M1018.179,253.135C1058.357,253.257,1094.63,228.959,1113.525,193.501C1131.376,160.002,1125.251,120.464,1106.448,87.49C1087.44,54.156,1056.551,26.543,1018.179,26.296C979.449,26.046,946.999,52.636,927.915,86.339C909.138,119.5,905.692,159.411,923.829,192.926C942.86,228.094,978.192,253.014,1018.179,253.135" fill="rgba(28, 83, 142, 0.4)" class="triangle-float1"></path><path d="M703.81506791313 607.4666463978084L623.1012354104547 441.57769919881594 530.6023461604735 573.6798035070362z" fill="rgba(28, 83, 142, 0.4)" class="triangle-float2"></path><path d="M972.0605966453395 577.4580474641432L977.4238309706536 500.76022332128434 859.6954775937082 531.0642839047426z" fill="rgba(28, 83, 142, 0.4)" class="triangle-float2"></path><path d="M1294.8905118874297 49.267862035106134L1201.3536180602105 117.22639333810308 1362.8490431904268 142.80475586232544z" fill="rgba(28, 83, 142, 0.4)" class="triangle-float2"></path><path d="M1378.0060896158943 17.4545058993008L1312.3504221679063 118.55536787831905 1413.4512841469245 184.211035326307 1479.1069515949125 83.11017334728875z" fill="rgba(28, 83, 142, 0.4)" class="triangle-float3"></path><path d="M610.0408389097429 591.0774784190694L741.3643319997165 597.9598510596068 748.2467046402538 466.63635796963314 616.9232115502803 459.7539853290958z" fill="rgba(28, 83, 142, 0.4)" class="triangle-float1"></path><path d="M195.031,566.921C215.602,566.609,234.675,556.975,245.736,539.628C257.752,520.783,263.713,496.502,252.117,477.395C240.822,458.784,216.8,455.901,195.031,456.081C173.679,456.258,150.913,460.243,139.559,478.327C127.607,497.364,129.658,522.158,141.587,541.21C152.832,559.169,173.844,567.243,195.031,566.921" fill="rgba(28, 83, 142, 0.4)" class="triangle-float1"></path><path d="M826.0584054097245 401.5604007855377L929.6158868017594 433.2211001416671 857.7191047658539 298.00291939350274z" fill="rgba(28, 83, 142, 0.4)" class="triangle-float2"></path><path d="M80.95857518380383-26.921004055569586L78.96390837633889 87.35338081024649 193.23829324215495 89.34804761771143 195.23296004961992-24.92633724810464z" fill="rgba(28, 83, 142, 0.4)" class="triangle-float1"></path><path d="M84.59762083477203 496.1477714319417L210.57060962777408 478.4434224370182 66.89327183984858 370.17478263893963z" fill="rgba(28, 83, 142, 0.4)" class="triangle-float1"></path><path d="M424.89708664536056 273.6156611658737L454.952242243063 168.80087742256046 282.70248882924193 176.12553589766353z" fill="rgba(28, 83, 142, 0.4)" class="triangle-float2"></path><path d="M114.718,345.182C137.638,343.684,155.447,328.005,167.476,308.438C180.269,287.628,189.502,262.944,178.763,241.003C166.874,216.713,141.735,199.45,114.718,200.65C89.239,201.781,72.502,224.155,59.821,246.283C47.236,268.243,36.203,294.087,48.487,316.217C61.021,338.797,88.947,346.867,114.718,345.182" fill="rgba(28, 83, 142, 0.4)" class="triangle-float2"></path><path d="M70.815,446.184C110.986,445.028,143.235,416.763,163.057,381.803C182.567,347.392,190.423,305.158,169.971,271.299C150.065,238.343,109.315,228.765,70.815,229.092C33.016,229.413,-5.003,241.177,-25.466,272.959C-47.624,307.375,-50.989,351.612,-31.104,387.389C-10.682,424.131,28.796,447.393,70.815,446.184" fill="rgba(28, 83, 142, 0.4)" class="triangle-float3"></path><path d="M515.9816840528983 433.3615536760442L503.81373871721485 294.28130207204146 364.7334871132121 306.44924740772495 376.9014324488956 445.5294990117277z" fill="rgba(28, 83, 142, 0.4)" class="triangle-float2"></path><path d="M1354.8128925277879 559.8128090786716L1436.6553319339373 488.66826191237783 1365.5107847676434 406.8258225062285 1283.6683453614942 477.97036967252234z" fill="rgba(28, 83, 142, 0.4)" class="triangle-float3"></path></g><defs><mask id="SvgjsMask1455"><rect width="1440" height="560" fill="#ffffff"></rect></mask><linearGradient x1="84.72%" y1="139.29%" x2="15.28%" y2="-39.29%" gradientUnits="userSpaceOnUse" id="SvgjsLinearGradient1456"><stop stop-color="#0e2a47" offset="0"></stop><stop stop-color="rgba(4, 74, 165, 1)" offset="1"></stop></linearGradient><style>
            @keyframes float1 {
                0%{transform: translate(0, 0)}
                50%{transform: translate(-10px, 0)}
                100%{transform: translate(0, 0)}
            }

            .triangle-float1 {
                animation: float1 5s infinite;
            }

            @keyframes float2 {
                0%{transform: translate(0, 0)}
                50%{transform: translate(-5px, -5px)}
                100%{transform: translate(0, 0)}
            }

            .triangle-float2 {
                animation: float2 4s infinite;
            }

            @keyframes float3 {
                0%{transform: translate(0, 0)}
                50%{transform: translate(0, -10px)}
                100%{transform: translate(0, 0)}
            }

            .triangle-float3 {
                animation: float3 6s infinite;
            }
        </style></defs></svg>