<svg xmlns="http://www.w3.org/2000/svg" version="1.1" xmlns:xlink="http://www.w3.org/1999/xlink" xmlns:svgjs="http://svgjs.com/svgjs" width="1440" height="560" preserveAspectRatio="none" viewBox="0 0 1440 560"><g mask="url(&quot;#SvgjsMask1128&quot;)" fill="none"><rect width="1440" height="560" x="0" y="0" fill="url(#SvgjsLinearGradient1129)"></rect><path d="M1290.073,153.212C1313.525,155.389,1337.465,144.426,1349.165,123.984C1360.801,103.654,1357.656,77.794,1344.223,58.603C1332.464,41.803,1310.58,39.517,1290.073,39.56C1269.67,39.603,1246.415,41.102,1236.314,58.829C1226.27,76.456,1237.313,96.902,1247.354,114.531C1257.544,132.421,1269.572,151.309,1290.073,153.212" fill="rgba(28, 83, 142, 0.4)" class="triangle-float2"></path><path d="M316.70535910992 234.00484564583306L446.22957045326825 121.62770460501585 305.36977861593937 70.35893317129475z" fill="rgba(28, 83, 142, 0.4)" class="triangle-float3"></path><path d="M289.8858578737885 167.3390738693758L262.45632151202653 296.38489652595536 391.50214416860604 323.8144328877173 418.931680530368 194.76861023113779z" fill="rgba(28, 83, 142, 0.4)" class="triangle-float2"></path><path d="M928.1385884923129-23.196503578548437L791.1923634621853 13.498126824765045 827.8869938654989 150.4443518548926 964.8332188956264 113.74972145157912z" fill="rgba(28, 83, 142, 0.4)" class="triangle-float1"></path><path d="M1433.421589969011 440.59851318411495L1377.3038340311841 347.2028833812359 1283.908204228305 403.3206393190627 1340.0259601661319 496.71626912194176z" fill="rgba(28, 83, 142, 0.4)" class="triangle-float2"></path><path d="M959.478,269.906C989.389,269.019,1018.111,256.551,1033.636,230.969C1049.75,204.416,1051.491,170.895,1035.854,144.058C1020.316,117.393,990.336,103.211,959.478,103.7C929.482,104.175,903.049,120.952,887.184,146.414C870.23,173.624,861.095,207.936,877.292,235.604C893.366,263.062,927.675,270.849,959.478,269.906" fill="rgba(28, 83, 142, 0.4)" class="triangle-float3"></path><path d="M1101.38 110.58 a136.33 136.33 0 1 0 272.66 0 a136.33 136.33 0 1 0 -272.66 0z" fill="rgba(28, 83, 142, 0.4)" class="triangle-float1"></path><path d="M1090.42 334.75 a133.86 133.86 0 1 0 267.72 0 a133.86 133.86 0 1 0 -267.72 0z" fill="rgba(28, 83, 142, 0.4)" class="triangle-float3"></path><path d="M558.1258362882993 256.5633602366272L587.0481652160498 184.97808413736993 465.2090866032886 177.38722879537272z" fill="rgba(28, 83, 142, 0.4)" class="triangle-float1"></path><path d="M-21.7 462.31 a177.02 177.02 0 1 0 354.04 0 a177.02 177.02 0 1 0 -354.04 0z" fill="rgba(28, 83, 142, 0.4)" class="triangle-float1"></path><path d="M1414.586421016571 359.8077308021212L1302.5080122564261 239.61835217838558 1182.3186336326903 351.6967609385305 1294.3970423928354 471.8861395622661z" fill="rgba(28, 83, 142, 0.4)" class="triangle-float2"></path><path d="M139.028,181.435C167.191,180.874,190.724,161.135,203.481,136.02C215.078,113.189,211.822,86.339,198.416,64.521C185.673,43.781,163.357,30.323,139.028,31.125C115.936,31.886,98.541,48.784,86.058,68.226C72.11,89.951,59.033,115.293,69.974,138.677C82.271,164.959,110.017,182.012,139.028,181.435" fill="rgba(28, 83, 142, 0.4)" class="triangle-float2"></path><path d="M89.29055706600444 155.75951004816406L186.66881235866515 218.99768844754354 152.5287354653839 58.38125475550335z" fill="rgba(28, 83, 142, 0.4)" class="triangle-float1"></path><path d="M280.11121332057525 404.3871763982589L218.97970161284803 338.8316560463847 214.55569296870107 465.5186881059861z" fill="rgba(28, 83, 142, 0.4)" class="triangle-float3"></path><path d="M707.77 347.85 a182.33 182.33 0 1 0 364.66 0 a182.33 182.33 0 1 0 -364.66 0z" fill="rgba(28, 83, 142, 0.4)" class="triangle-float2"></path><path d="M791.061,519.466C813.649,518.118,832.907,504.827,844.422,485.348C856.173,465.47,860.366,441.182,849.33,420.898C837.843,399.785,815.092,387.778,791.061,387.268C766.063,386.738,741.586,397.121,728.345,418.331C714.311,440.812,711.429,469.928,725.396,492.451C738.765,514.009,765.739,520.977,791.061,519.466" fill="rgba(28, 83, 142, 0.4)" class="triangle-float2"></path></g><defs><mask id="SvgjsMask1128"><rect width="1440" height="560" fill="#ffffff"></rect></mask><linearGradient x1="84.72%" y1="-39.29%" x2="15.28%" y2="139.29%" gradientUnits="userSpaceOnUse" id="SvgjsLinearGradient1129"><stop stop-color="#0e2a47" offset="0"></stop><stop stop-color="rgba(4, 74, 165, 1)" offset="1"></stop></linearGradient><style>
            @keyframes float1 {
                0%{transform: translate(0, 0)}
                50%{transform: translate(-10px, 0)}
                100%{transform: translate(0, 0)}
            }

            .triangle-float1 {
                animation: float1 5s infinite;
            }

            @keyframes float2 {
                0%{transform: translate(0, 0)}
                50%{transform: translate(-5px, -5px)}
                100%{transform: translate(0, 0)}
            }

            .triangle-float2 {
                animation: float2 4s infinite;
            }

            @keyframes float3 {
                0%{transform: translate(0, 0)}
                50%{transform: translate(0, -10px)}
                100%{transform: translate(0, 0)}
            }

            .triangle-float3 {
                animation: float3 6s infinite;
            }
        </style></defs></svg>