<svg xmlns="http://www.w3.org/2000/svg" version="1.1" xmlns:xlink="http://www.w3.org/1999/xlink" xmlns:svgjs="http://svgjs.com/svgjs" width="1440" height="560" preserveAspectRatio="none" viewBox="0 0 1440 560"><g mask="url(&quot;#SvgjsMask1409&quot;)" fill="none"><rect width="1440" height="560" x="0" y="0" fill="rgba(227, 237, 255, 1)"></rect><use xlink:href="#SvgjsG1415" transform="translate(0, 0)" fill="#0f457b"></use><use xlink:href="#SvgjsG1415" transform="translate(0, 559)" fill="#0f457b"></use><use xlink:href="#SvgjsG1415" transform="translate(559, 0)" fill="#0f457b"></use><use xlink:href="#SvgjsG1415" transform="translate(559, 559)" fill="#0f457b"></use><use xlink:href="#SvgjsG1415" transform="translate(1118, 0)" fill="#0f457b"></use><use xlink:href="#SvgjsG1415" transform="translate(1118, 559)" fill="#0f457b"></use></g><defs><mask id="SvgjsMask1409"><rect width="1440" height="560" fill="#ffffff"></rect></mask><g id="SvgjsG1411"><path d="M8.312 8.242l0 0.521c0.492-0.069 0.443-0.509 0-0.52v-0.001z m-0.51-0.627V7.155c-0.365 0.064-0.358 0.454 0 0.46z"></path><path d="M8.055 5.946c-1.128 0-2.044 0.915-2.044 2.043 0 1.129 0.915 2.044 2.045 2.044 1.129 0 2.043-0.915 2.043-2.044 0-1.128-0.915-2.043-2.043-2.043l-0.001 0z m0.251 3.336v0.364h-0.507v-0.37c-0.29-0.043-0.822-0.323-0.855-0.924h0.534c0.034 0.154 0.078 0.34 0.321 0.409l-0.001-0.605c-0.334-0.048-0.814-0.194-0.814-0.73 0-0.602 0.666-0.789 0.813-0.789v-0.364h0.502v0.364c0.338 0.02 0.83 0.302 0.829 0.84h-0.528c-0.014-0.16-0.137-0.317-0.296-0.327v0.554c0.403 0.041 0.877 0.195 0.877 0.738 0 0.473-0.475 0.818-0.877 0.84h0.002z"></path><path d="M0 11.93h16V4H0v7.93z m1.508-1.508V5.508h12.984V10.422H1.508z"></path></g><g id="SvgjsG1413"><path d="M7.996 16h-0.001c-2.137-0.001-4.145-0.834-5.655-2.345C0.829 12.142-0.002 10.132 0 7.995-0.002 5.861 0.828 3.853 2.338 2.342 3.848 0.832 5.855 0 7.99 0h0.01C10.136 0 12.146 0.832 13.656 2.342c1.51 1.51 2.342 3.518 2.344 5.653-0.002 2.139-0.835 4.148-2.346 5.66-1.512 1.511-3.521 2.344-5.658 2.345z m-0.006-14.161c-1.644 0-3.189 0.64-4.351 1.804-1.162 1.163-1.801 2.708-1.8 4.352-0.001 1.648 0.639 3.196 1.802 4.359 1.163 1.164 2.709 1.805 4.354 1.807 3.398-0.002 6.163-2.768 6.167-6.166-0.002-3.394-2.765-6.155-6.16-6.155h-0.01z"></path><path d="M8.692 7.143V5.35c0.511 0.037 0.91 0.544 0.957 1.062h1.697c0.002-1.741-1.581-2.657-2.672-2.724v-1.175H7.056v1.175c-0.476 0.004-2.622 0.611-2.62 2.558-0.003 1.733 1.545 2.206 2.62 2.358v1.959c-0.783-0.222-0.926-0.824-1.036-1.323h-1.723c0.11 1.949 1.823 2.856 2.759 2.995v1.202h1.636v-1.184c1.294-0.07 2.827-1.187 2.829-2.716-0.002-1.758-1.529-2.256-2.829-2.393zM7.064 6.855c-1.152-0.018-1.175-1.281 0-1.488v1.488z m1.645 3.717V8.883c1.427 0.039 1.586 1.462 0 1.689z"></path></g><g id="SvgjsG1410"><path d="M7.713 15.485C3.459 15.485 0 12.025 0 7.768 0 3.513 3.459 0.051 7.713 0.051S15.432 3.513 15.432 7.768c0 4.257-3.465 7.716-7.719 7.717z m0-1.91c3.201 0 5.81-2.604 5.81-5.809 0-3.199-2.61-5.807-5.81-5.807-3.202 0-5.804 2.609-5.804 5.807-0.001 3.206 2.602 5.809 5.804 5.809z"></path><path d="M7.753 8.787a0.574 0.574 0 0 1-0.554-0.042 0.578 0.578 0 0 1-0.259-0.399L6.931 3.862a0.58 0.58 0 0 1 1.162 0v3.478l2.975-1.4a0.578 0.578 0 0 1 0.773 0.275c0.138 0.292 0.011 0.637-0.276 0.774l-3.81 1.798z"></path></g><g id="SvgjsG1412"><path d="M8.43 3.58a1.188 1.188 0 0 0 0-2.372 1.186 1.186 0 0 0 0 2.372"></path><path d="M9.314 3.844h-1.73L4.634 0.894A0.6 0.6 0 0 0 3.78 0.874a0.6 0.6 0 0 0-0.024 0.856l3.08 3.086v10.228a0.664 0.664 0 0 0 1.334 0V9.496h0.54v5.548c0 0.37 0.304 0.668 0.67 0.668 0.368 0 0.664-0.3 0.664-0.668L10.04 4.816 13.12 1.73a0.6 0.6 0 0 0-0.02-0.854 0.6 0.6 0 0 0-0.856 0.02L9.314 3.84z"></path></g><g id="SvgjsG1414"><path d="M12.676 8.32c-1.028 0-1.863 0.836-1.864 1.867 0 1.031 0.836 1.86 1.867 1.859S14.542 11.218 14.542 10.187c0-1.031-0.836-1.867-1.866-1.867M1.982 10.578c0.185 0.832 0.93 1.484 1.821 1.484 0.9 0 1.653-0.64 1.825-1.486H1.982z" fill-rule="evenodd"></path><path d="M14.32 8.213c-0.332-1.502-1.822-1.333-1.822-1.333l-0.454-1.458c-0.014-0.062 0.076-0.089 0.077-0.089l0.768-0.231-0.107-1.081L11.881 3.947C11.623 3.973 11.563 3.733 11.563 3.733l-0.107-0.373C11.383 3.07 11.129 3.102 11.129 3.102H9.333c-0.256 0.19 0.044 0.343 0.045 0.343h1.102c0.103-0.018 0.164 0.107 0.164 0.107l0.604 3.627c-1.358 0.907-1.582 1.959-1.582 1.959H7.614c-1.28-0.965-0.711-2.35-0.711-2.35h0.498v-1.007H0.88v1.007h0.996c-1.387 1.326-1.28 3.285-1.28 3.285h9.656A2.428 2.428 0 0 1 14.222 8.309s0.142 0.103 0.098-0.097" fill-rule="evenodd"></path></g><g id="SvgjsG1415"><use xlink:href="#SvgjsG1410" transform="translate(0, 0) scale(1.3)" fill="#0f457b"></use><use xlink:href="#SvgjsG1410" transform="translate(0, 55.9) scale(1.3)" fill="#0f457b"></use><use xlink:href="#SvgjsG1411" transform="translate(0, 111.8) scale(1.3)" fill="#0f457b"></use><use xlink:href="#SvgjsG1412" transform="translate(0, 167.7) scale(1.3)" fill="#0f457b"></use><use xlink:href="#SvgjsG1413" transform="translate(0, 223.6) scale(1.3)" fill="#0f457b"></use><use xlink:href="#SvgjsG1411" transform="translate(0, 279.5) scale(1.3)" fill="#0f457b"></use><use xlink:href="#SvgjsG1414" transform="translate(0, 335.4) scale(1.3)" fill="#0f457b"></use><use xlink:href="#SvgjsG1414" transform="translate(0, 391.3) scale(1.3)" fill="#0f457b"></use><use xlink:href="#SvgjsG1411" transform="translate(0, 447.2) scale(1.3)" fill="#0f457b"></use><use xlink:href="#SvgjsG1413" transform="translate(0, 503.09999999999997) scale(1.3)" fill="#0f457b"></use><use xlink:href="#SvgjsG1413" transform="translate(55.9, 0) scale(1.3)" fill="#0f457b"></use><use xlink:href="#SvgjsG1410" transform="translate(55.9, 55.9) scale(1.3)" fill="#0f457b"></use><use xlink:href="#SvgjsG1412" transform="translate(55.9, 111.8) scale(1.3)" fill="#0f457b"></use><use xlink:href="#SvgjsG1414" transform="translate(55.9, 167.7) scale(1.3)" fill="#0f457b"></use><use xlink:href="#SvgjsG1412" transform="translate(55.9, 223.6) scale(1.3)" fill="#0f457b"></use><use xlink:href="#SvgjsG1410" transform="translate(55.9, 279.5) scale(1.3)" fill="#0f457b"></use><use xlink:href="#SvgjsG1412" transform="translate(55.9, 335.4) scale(1.3)" fill="#0f457b"></use><use xlink:href="#SvgjsG1411" transform="translate(55.9, 391.3) scale(1.3)" fill="#0f457b"></use><use xlink:href="#SvgjsG1412" transform="translate(55.9, 447.2) scale(1.3)" fill="#0f457b"></use><use xlink:href="#SvgjsG1413" transform="translate(55.9, 503.09999999999997) scale(1.3)" fill="#0f457b"></use><use xlink:href="#SvgjsG1414" transform="translate(111.8, 0) scale(1.3)" fill="#0f457b"></use><use xlink:href="#SvgjsG1411" transform="translate(111.8, 55.9) scale(1.3)" fill="#0f457b"></use><use xlink:href="#SvgjsG1411" transform="translate(111.8, 111.8) scale(1.3)" fill="#0f457b"></use><use xlink:href="#SvgjsG1414" transform="translate(111.8, 167.7) scale(1.3)" fill="#0f457b"></use><use xlink:href="#SvgjsG1411" transform="translate(111.8, 223.6) scale(1.3)" fill="#0f457b"></use><use xlink:href="#SvgjsG1413" transform="translate(111.8, 279.5) scale(1.3)" fill="#0f457b"></use><use xlink:href="#SvgjsG1412" transform="translate(111.8, 335.4) scale(1.3)" fill="#0f457b"></use><use xlink:href="#SvgjsG1411" transform="translate(111.8, 391.3) scale(1.3)" fill="#0f457b"></use><use xlink:href="#SvgjsG1411" transform="translate(111.8, 447.2) scale(1.3)" fill="#0f457b"></use><use xlink:href="#SvgjsG1411" transform="translate(111.8, 503.09999999999997) scale(1.3)" fill="#0f457b"></use><use xlink:href="#SvgjsG1412" transform="translate(167.7, 0) scale(1.3)" fill="#0f457b"></use><use xlink:href="#SvgjsG1410" transform="translate(167.7, 55.9) scale(1.3)" fill="#0f457b"></use><use xlink:href="#SvgjsG1412" transform="translate(167.7, 111.8) scale(1.3)" fill="#0f457b"></use><use xlink:href="#SvgjsG1410" transform="translate(167.7, 167.7) scale(1.3)" fill="#0f457b"></use><use xlink:href="#SvgjsG1414" transform="translate(167.7, 223.6) scale(1.3)" fill="#0f457b"></use><use xlink:href="#SvgjsG1410" transform="translate(167.7, 279.5) scale(1.3)" fill="#0f457b"></use><use xlink:href="#SvgjsG1411" transform="translate(167.7, 335.4) scale(1.3)" fill="#0f457b"></use><use xlink:href="#SvgjsG1410" transform="translate(167.7, 391.3) scale(1.3)" fill="#0f457b"></use><use xlink:href="#SvgjsG1410" transform="translate(167.7, 447.2) scale(1.3)" fill="#0f457b"></use><use xlink:href="#SvgjsG1414" transform="translate(167.7, 503.09999999999997) scale(1.3)" fill="#0f457b"></use><use xlink:href="#SvgjsG1411" transform="translate(223.6, 0) scale(1.3)" fill="#0f457b"></use><use xlink:href="#SvgjsG1411" transform="translate(223.6, 55.9) scale(1.3)" fill="#0f457b"></use><use xlink:href="#SvgjsG1412" transform="translate(223.6, 111.8) scale(1.3)" fill="#0f457b"></use><use xlink:href="#SvgjsG1411" transform="translate(223.6, 167.7) scale(1.3)" fill="#0f457b"></use><use xlink:href="#SvgjsG1414" transform="translate(223.6, 223.6) scale(1.3)" fill="#0f457b"></use><use xlink:href="#SvgjsG1414" transform="translate(223.6, 279.5) scale(1.3)" fill="#0f457b"></use><use xlink:href="#SvgjsG1410" transform="translate(223.6, 335.4) scale(1.3)" fill="#0f457b"></use><use xlink:href="#SvgjsG1412" transform="translate(223.6, 391.3) scale(1.3)" fill="#0f457b"></use><use xlink:href="#SvgjsG1414" transform="translate(223.6, 447.2) scale(1.3)" fill="#0f457b"></use><use xlink:href="#SvgjsG1414" transform="translate(223.6, 503.09999999999997) scale(1.3)" fill="#0f457b"></use><use xlink:href="#SvgjsG1412" transform="translate(279.5, 0) scale(1.3)" fill="#0f457b"></use><use xlink:href="#SvgjsG1411" transform="translate(279.5, 55.9) scale(1.3)" fill="#0f457b"></use><use xlink:href="#SvgjsG1410" transform="translate(279.5, 111.8) scale(1.3)" fill="#0f457b"></use><use xlink:href="#SvgjsG1414" transform="translate(279.5, 167.7) scale(1.3)" fill="#0f457b"></use><use xlink:href="#SvgjsG1412" transform="translate(279.5, 223.6) scale(1.3)" fill="#0f457b"></use><use xlink:href="#SvgjsG1413" transform="translate(279.5, 279.5) scale(1.3)" fill="#0f457b"></use><use xlink:href="#SvgjsG1414" transform="translate(279.5, 335.4) scale(1.3)" fill="#0f457b"></use><use xlink:href="#SvgjsG1413" transform="translate(279.5, 391.3) scale(1.3)" fill="#0f457b"></use><use xlink:href="#SvgjsG1413" transform="translate(279.5, 447.2) scale(1.3)" fill="#0f457b"></use><use xlink:href="#SvgjsG1412" transform="translate(279.5, 503.09999999999997) scale(1.3)" fill="#0f457b"></use><use xlink:href="#SvgjsG1411" transform="translate(335.4, 0) scale(1.3)" fill="#0f457b"></use><use xlink:href="#SvgjsG1414" transform="translate(335.4, 55.9) scale(1.3)" fill="#0f457b"></use><use xlink:href="#SvgjsG1414" transform="translate(335.4, 111.8) scale(1.3)" fill="#0f457b"></use><use xlink:href="#SvgjsG1412" transform="translate(335.4, 167.7) scale(1.3)" fill="#0f457b"></use><use xlink:href="#SvgjsG1413" transform="translate(335.4, 223.6) scale(1.3)" fill="#0f457b"></use><use xlink:href="#SvgjsG1412" transform="translate(335.4, 279.5) scale(1.3)" fill="#0f457b"></use><use xlink:href="#SvgjsG1412" transform="translate(335.4, 335.4) scale(1.3)" fill="#0f457b"></use><use xlink:href="#SvgjsG1413" transform="translate(335.4, 391.3) scale(1.3)" fill="#0f457b"></use><use xlink:href="#SvgjsG1410" transform="translate(335.4, 447.2) scale(1.3)" fill="#0f457b"></use><use xlink:href="#SvgjsG1412" transform="translate(335.4, 503.09999999999997) scale(1.3)" fill="#0f457b"></use><use xlink:href="#SvgjsG1412" transform="translate(391.3, 0) scale(1.3)" fill="#0f457b"></use><use xlink:href="#SvgjsG1410" transform="translate(391.3, 55.9) scale(1.3)" fill="#0f457b"></use><use xlink:href="#SvgjsG1414" transform="translate(391.3, 111.8) scale(1.3)" fill="#0f457b"></use><use xlink:href="#SvgjsG1412" transform="translate(391.3, 167.7) scale(1.3)" fill="#0f457b"></use><use xlink:href="#SvgjsG1410" transform="translate(391.3, 223.6) scale(1.3)" fill="#0f457b"></use><use xlink:href="#SvgjsG1411" transform="translate(391.3, 279.5) scale(1.3)" fill="#0f457b"></use><use xlink:href="#SvgjsG1410" transform="translate(391.3, 335.4) scale(1.3)" fill="#0f457b"></use><use xlink:href="#SvgjsG1412" transform="translate(391.3, 391.3) scale(1.3)" fill="#0f457b"></use><use xlink:href="#SvgjsG1412" transform="translate(391.3, 447.2) scale(1.3)" fill="#0f457b"></use><use xlink:href="#SvgjsG1411" transform="translate(391.3, 503.09999999999997) scale(1.3)" fill="#0f457b"></use><use xlink:href="#SvgjsG1413" transform="translate(447.2, 0) scale(1.3)" fill="#0f457b"></use><use xlink:href="#SvgjsG1412" transform="translate(447.2, 55.9) scale(1.3)" fill="#0f457b"></use><use xlink:href="#SvgjsG1413" transform="translate(447.2, 111.8) scale(1.3)" fill="#0f457b"></use><use xlink:href="#SvgjsG1410" transform="translate(447.2, 167.7) scale(1.3)" fill="#0f457b"></use><use xlink:href="#SvgjsG1413" transform="translate(447.2, 223.6) scale(1.3)" fill="#0f457b"></use><use xlink:href="#SvgjsG1410" transform="translate(447.2, 279.5) scale(1.3)" fill="#0f457b"></use><use xlink:href="#SvgjsG1414" transform="translate(447.2, 335.4) scale(1.3)" fill="#0f457b"></use><use xlink:href="#SvgjsG1412" transform="translate(447.2, 391.3) scale(1.3)" fill="#0f457b"></use><use xlink:href="#SvgjsG1414" transform="translate(447.2, 447.2) scale(1.3)" fill="#0f457b"></use><use xlink:href="#SvgjsG1413" transform="translate(447.2, 503.09999999999997) scale(1.3)" fill="#0f457b"></use><use xlink:href="#SvgjsG1411" transform="translate(503.09999999999997, 0) scale(1.3)" fill="#0f457b"></use><use xlink:href="#SvgjsG1414" transform="translate(503.09999999999997, 55.9) scale(1.3)" fill="#0f457b"></use><use xlink:href="#SvgjsG1412" transform="translate(503.09999999999997, 111.8) scale(1.3)" fill="#0f457b"></use><use xlink:href="#SvgjsG1414" transform="translate(503.09999999999997, 167.7) scale(1.3)" fill="#0f457b"></use><use xlink:href="#SvgjsG1413" transform="translate(503.09999999999997, 223.6) scale(1.3)" fill="#0f457b"></use><use xlink:href="#SvgjsG1413" transform="translate(503.09999999999997, 279.5) scale(1.3)" fill="#0f457b"></use><use xlink:href="#SvgjsG1414" transform="translate(503.09999999999997, 335.4) scale(1.3)" fill="#0f457b"></use><use xlink:href="#SvgjsG1410" transform="translate(503.09999999999997, 391.3) scale(1.3)" fill="#0f457b"></use><use xlink:href="#SvgjsG1410" transform="translate(503.09999999999997, 447.2) scale(1.3)" fill="#0f457b"></use><use xlink:href="#SvgjsG1410" transform="translate(503.09999999999997, 503.09999999999997) scale(1.3)" fill="#0f457b"></use></g></defs></svg>