<svg xmlns="http://www.w3.org/2000/svg" version="1.1" xmlns:xlink="http://www.w3.org/1999/xlink" xmlns:svgjs="http://svgjs.com/svgjs" width="1440" height="560" preserveAspectRatio="none" viewBox="0 0 1440 560"><g mask="url(&quot;#SvgjsMask1131&quot;)" fill="none"><rect width="1440" height="560" x="0" y="0" fill="#0e2a47"></rect><use xlink:href="#SvgjsG1135" transform="translate(0, 0)" fill="#0f457b"></use><use xlink:href="#SvgjsG1135" transform="translate(0, 408)" fill="#0f457b"></use><use xlink:href="#SvgjsG1135" transform="translate(408, 0)" fill="#0f457b"></use><use xlink:href="#SvgjsG1135" transform="translate(408, 408)" fill="#0f457b"></use><use xlink:href="#SvgjsG1135" transform="translate(816, 0)" fill="#0f457b"></use><use xlink:href="#SvgjsG1135" transform="translate(816, 408)" fill="#0f457b"></use><use xlink:href="#SvgjsG1135" transform="translate(1224, 0)" fill="#0f457b"></use><use xlink:href="#SvgjsG1135" transform="translate(1224, 408)" fill="#0f457b"></use></g><defs><mask id="SvgjsMask1131"><rect width="1440" height="560" fill="#ffffff"></rect></mask><g id="SvgjsG1134"><path d="M8.312 8.242l0 0.521c0.492-0.069 0.443-0.509 0-0.52v-0.001z m-0.51-0.627V7.155c-0.365 0.064-0.358 0.454 0 0.46z"></path><path d="M8.055 5.946c-1.128 0-2.044 0.915-2.044 2.043 0 1.129 0.915 2.044 2.045 2.044 1.129 0 2.043-0.915 2.043-2.044 0-1.128-0.915-2.043-2.043-2.043l-0.001 0z m0.251 3.336v0.364h-0.507v-0.37c-0.29-0.043-0.822-0.323-0.855-0.924h0.534c0.034 0.154 0.078 0.34 0.321 0.409l-0.001-0.605c-0.334-0.048-0.814-0.194-0.814-0.73 0-0.602 0.666-0.789 0.813-0.789v-0.364h0.502v0.364c0.338 0.02 0.83 0.302 0.829 0.84h-0.528c-0.014-0.16-0.137-0.317-0.296-0.327v0.554c0.403 0.041 0.877 0.195 0.877 0.738 0 0.473-0.475 0.818-0.877 0.84h0.002z"></path><path d="M0 11.93h16V4H0v7.93z m1.508-1.508V5.508h12.984V10.422H1.508z"></path></g><g id="SvgjsG1133"><path d="M7.992 13.358C5.055 13.358 2.667 10.97 2.667 8.03 2.667 5.092 5.055 2.702 7.992 2.702s5.33 2.39 5.33 5.328c0 2.939-2.392 5.328-5.33 5.328z m0-1.318c2.21 0 4.011-1.798 4.012-4.011 0-2.209-1.802-4.01-4.012-4.01-2.211 0-4.008 1.801-4.007 4.01-0.001 2.213 1.797 4.011 4.007 4.011z" fill-rule="evenodd"></path><path d="M8.02 8.734a0.396 0.396 0 0 1-0.383-0.029 0.399 0.399 0 0 1-0.179-0.275L7.453 5.333a0.401 0.401 0 0 1 0.801 0v2.402l2.055-0.967a0.399 0.399 0 0 1 0.533 0.19c0.095 0.202 0.008 0.44-0.19 0.534l-2.631 1.242zM5.714 12.571h4.572v3.429H5.714zM5.714 0h4.572v3.429H5.714z" fill-rule="evenodd"></path></g><g id="SvgjsG1132"><path d="M7.996 16h-0.001c-2.137-0.001-4.145-0.834-5.655-2.345C0.829 12.142-0.002 10.132 0 7.995-0.002 5.861 0.828 3.853 2.338 2.342 3.848 0.832 5.855 0 7.99 0h0.01C10.136 0 12.146 0.832 13.656 2.342c1.51 1.51 2.342 3.518 2.344 5.653-0.002 2.139-0.835 4.148-2.346 5.66-1.512 1.511-3.521 2.344-5.658 2.345z m-0.006-14.161c-1.644 0-3.189 0.64-4.351 1.804-1.162 1.163-1.801 2.708-1.8 4.352-0.001 1.648 0.639 3.196 1.802 4.359 1.163 1.164 2.709 1.805 4.354 1.807 3.398-0.002 6.163-2.768 6.167-6.166-0.002-3.394-2.765-6.155-6.16-6.155h-0.01z"></path><path d="M8.692 7.143V5.35c0.511 0.037 0.91 0.544 0.957 1.062h1.697c0.002-1.741-1.581-2.657-2.672-2.724v-1.175H7.056v1.175c-0.476 0.004-2.622 0.611-2.62 2.558-0.003 1.733 1.545 2.206 2.62 2.358v1.959c-0.783-0.222-0.926-0.824-1.036-1.323h-1.723c0.11 1.949 1.823 2.856 2.759 2.995v1.202h1.636v-1.184c1.294-0.07 2.827-1.187 2.829-2.716-0.002-1.758-1.529-2.256-2.829-2.393zM7.064 6.855c-1.152-0.018-1.175-1.281 0-1.488v1.488z m1.645 3.717V8.883c1.427 0.039 1.586 1.462 0 1.689z"></path></g><g id="SvgjsG1135"><use xlink:href="#SvgjsG1132" transform="translate(0, 0) scale(1.7)" fill="#0f457b"></use><use xlink:href="#SvgjsG1132" transform="translate(0, 40.8) scale(1.7)" fill="#0f457b"></use><use xlink:href="#SvgjsG1133" transform="translate(0, 81.6) scale(1.7)" fill="#0f457b"></use><use xlink:href="#SvgjsG1132" transform="translate(0, 122.39999999999999) scale(1.7)" fill="#0f457b"></use><use xlink:href="#SvgjsG1134" transform="translate(0, 163.2) scale(1.7)" fill="#0f457b"></use><use xlink:href="#SvgjsG1133" transform="translate(0, 204) scale(1.7)" fill="#0f457b"></use><use xlink:href="#SvgjsG1132" transform="translate(0, 244.79999999999998) scale(1.7)" fill="#0f457b"></use><use xlink:href="#SvgjsG1132" transform="translate(0, 285.59999999999997) scale(1.7)" fill="#0f457b"></use><use xlink:href="#SvgjsG1133" transform="translate(0, 326.4) scale(1.7)" fill="#0f457b"></use><use xlink:href="#SvgjsG1133" transform="translate(0, 367.2) scale(1.7)" fill="#0f457b"></use><use xlink:href="#SvgjsG1132" transform="translate(40.8, 0) scale(1.7)" fill="#0f457b"></use><use xlink:href="#SvgjsG1132" transform="translate(40.8, 40.8) scale(1.7)" fill="#0f457b"></use><use xlink:href="#SvgjsG1132" transform="translate(40.8, 81.6) scale(1.7)" fill="#0f457b"></use><use xlink:href="#SvgjsG1132" transform="translate(40.8, 122.39999999999999) scale(1.7)" fill="#0f457b"></use><use xlink:href="#SvgjsG1134" transform="translate(40.8, 163.2) scale(1.7)" fill="#0f457b"></use><use xlink:href="#SvgjsG1132" transform="translate(40.8, 204) scale(1.7)" fill="#0f457b"></use><use xlink:href="#SvgjsG1134" transform="translate(40.8, 244.79999999999998) scale(1.7)" fill="#0f457b"></use><use xlink:href="#SvgjsG1133" transform="translate(40.8, 285.59999999999997) scale(1.7)" fill="#0f457b"></use><use xlink:href="#SvgjsG1132" transform="translate(40.8, 326.4) scale(1.7)" fill="#0f457b"></use><use xlink:href="#SvgjsG1133" transform="translate(40.8, 367.2) scale(1.7)" fill="#0f457b"></use><use xlink:href="#SvgjsG1132" transform="translate(81.6, 0) scale(1.7)" fill="#0f457b"></use><use xlink:href="#SvgjsG1134" transform="translate(81.6, 40.8) scale(1.7)" fill="#0f457b"></use><use xlink:href="#SvgjsG1132" transform="translate(81.6, 81.6) scale(1.7)" fill="#0f457b"></use><use xlink:href="#SvgjsG1133" transform="translate(81.6, 122.39999999999999) scale(1.7)" fill="#0f457b"></use><use xlink:href="#SvgjsG1133" transform="translate(81.6, 163.2) scale(1.7)" fill="#0f457b"></use><use xlink:href="#SvgjsG1133" transform="translate(81.6, 204) scale(1.7)" fill="#0f457b"></use><use xlink:href="#SvgjsG1134" transform="translate(81.6, 244.79999999999998) scale(1.7)" fill="#0f457b"></use><use xlink:href="#SvgjsG1132" transform="translate(81.6, 285.59999999999997) scale(1.7)" fill="#0f457b"></use><use xlink:href="#SvgjsG1132" transform="translate(81.6, 326.4) scale(1.7)" fill="#0f457b"></use><use xlink:href="#SvgjsG1134" transform="translate(81.6, 367.2) scale(1.7)" fill="#0f457b"></use><use xlink:href="#SvgjsG1133" transform="translate(122.39999999999999, 0) scale(1.7)" fill="#0f457b"></use><use xlink:href="#SvgjsG1133" transform="translate(122.39999999999999, 40.8) scale(1.7)" fill="#0f457b"></use><use xlink:href="#SvgjsG1133" transform="translate(122.39999999999999, 81.6) scale(1.7)" fill="#0f457b"></use><use xlink:href="#SvgjsG1133" transform="translate(122.39999999999999, 122.39999999999999) scale(1.7)" fill="#0f457b"></use><use xlink:href="#SvgjsG1132" transform="translate(122.39999999999999, 163.2) scale(1.7)" fill="#0f457b"></use><use xlink:href="#SvgjsG1133" transform="translate(122.39999999999999, 204) scale(1.7)" fill="#0f457b"></use><use xlink:href="#SvgjsG1134" transform="translate(122.39999999999999, 244.79999999999998) scale(1.7)" fill="#0f457b"></use><use xlink:href="#SvgjsG1134" transform="translate(122.39999999999999, 285.59999999999997) scale(1.7)" fill="#0f457b"></use><use xlink:href="#SvgjsG1134" transform="translate(122.39999999999999, 326.4) scale(1.7)" fill="#0f457b"></use><use xlink:href="#SvgjsG1133" transform="translate(122.39999999999999, 367.2) scale(1.7)" fill="#0f457b"></use><use xlink:href="#SvgjsG1134" transform="translate(163.2, 0) scale(1.7)" fill="#0f457b"></use><use xlink:href="#SvgjsG1134" transform="translate(163.2, 40.8) scale(1.7)" fill="#0f457b"></use><use xlink:href="#SvgjsG1134" transform="translate(163.2, 81.6) scale(1.7)" fill="#0f457b"></use><use xlink:href="#SvgjsG1134" transform="translate(163.2, 122.39999999999999) scale(1.7)" fill="#0f457b"></use><use xlink:href="#SvgjsG1133" transform="translate(163.2, 163.2) scale(1.7)" fill="#0f457b"></use><use xlink:href="#SvgjsG1132" transform="translate(163.2, 204) scale(1.7)" fill="#0f457b"></use><use xlink:href="#SvgjsG1132" transform="translate(163.2, 244.79999999999998) scale(1.7)" fill="#0f457b"></use><use xlink:href="#SvgjsG1132" transform="translate(163.2, 285.59999999999997) scale(1.7)" fill="#0f457b"></use><use xlink:href="#SvgjsG1134" transform="translate(163.2, 326.4) scale(1.7)" fill="#0f457b"></use><use xlink:href="#SvgjsG1134" transform="translate(163.2, 367.2) scale(1.7)" fill="#0f457b"></use><use xlink:href="#SvgjsG1132" transform="translate(204, 0) scale(1.7)" fill="#0f457b"></use><use xlink:href="#SvgjsG1133" transform="translate(204, 40.8) scale(1.7)" fill="#0f457b"></use><use xlink:href="#SvgjsG1134" transform="translate(204, 81.6) scale(1.7)" fill="#0f457b"></use><use xlink:href="#SvgjsG1132" transform="translate(204, 122.39999999999999) scale(1.7)" fill="#0f457b"></use><use xlink:href="#SvgjsG1132" transform="translate(204, 163.2) scale(1.7)" fill="#0f457b"></use><use xlink:href="#SvgjsG1133" transform="translate(204, 204) scale(1.7)" fill="#0f457b"></use><use xlink:href="#SvgjsG1134" transform="translate(204, 244.79999999999998) scale(1.7)" fill="#0f457b"></use><use xlink:href="#SvgjsG1133" transform="translate(204, 285.59999999999997) scale(1.7)" fill="#0f457b"></use><use xlink:href="#SvgjsG1134" transform="translate(204, 326.4) scale(1.7)" fill="#0f457b"></use><use xlink:href="#SvgjsG1134" transform="translate(204, 367.2) scale(1.7)" fill="#0f457b"></use><use xlink:href="#SvgjsG1132" transform="translate(244.79999999999998, 0) scale(1.7)" fill="#0f457b"></use><use xlink:href="#SvgjsG1133" transform="translate(244.79999999999998, 40.8) scale(1.7)" fill="#0f457b"></use><use xlink:href="#SvgjsG1132" transform="translate(244.79999999999998, 81.6) scale(1.7)" fill="#0f457b"></use><use xlink:href="#SvgjsG1132" transform="translate(244.79999999999998, 122.39999999999999) scale(1.7)" fill="#0f457b"></use><use xlink:href="#SvgjsG1132" transform="translate(244.79999999999998, 163.2) scale(1.7)" fill="#0f457b"></use><use xlink:href="#SvgjsG1132" transform="translate(244.79999999999998, 204) scale(1.7)" fill="#0f457b"></use><use xlink:href="#SvgjsG1132" transform="translate(244.79999999999998, 244.79999999999998) scale(1.7)" fill="#0f457b"></use><use xlink:href="#SvgjsG1132" transform="translate(244.79999999999998, 285.59999999999997) scale(1.7)" fill="#0f457b"></use><use xlink:href="#SvgjsG1134" transform="translate(244.79999999999998, 326.4) scale(1.7)" fill="#0f457b"></use><use xlink:href="#SvgjsG1133" transform="translate(244.79999999999998, 367.2) scale(1.7)" fill="#0f457b"></use><use xlink:href="#SvgjsG1133" transform="translate(285.59999999999997, 0) scale(1.7)" fill="#0f457b"></use><use xlink:href="#SvgjsG1133" transform="translate(285.59999999999997, 40.8) scale(1.7)" fill="#0f457b"></use><use xlink:href="#SvgjsG1134" transform="translate(285.59999999999997, 81.6) scale(1.7)" fill="#0f457b"></use><use xlink:href="#SvgjsG1132" transform="translate(285.59999999999997, 122.39999999999999) scale(1.7)" fill="#0f457b"></use><use xlink:href="#SvgjsG1133" transform="translate(285.59999999999997, 163.2) scale(1.7)" fill="#0f457b"></use><use xlink:href="#SvgjsG1132" transform="translate(285.59999999999997, 204) scale(1.7)" fill="#0f457b"></use><use xlink:href="#SvgjsG1134" transform="translate(285.59999999999997, 244.79999999999998) scale(1.7)" fill="#0f457b"></use><use xlink:href="#SvgjsG1132" transform="translate(285.59999999999997, 285.59999999999997) scale(1.7)" fill="#0f457b"></use><use xlink:href="#SvgjsG1134" transform="translate(285.59999999999997, 326.4) scale(1.7)" fill="#0f457b"></use><use xlink:href="#SvgjsG1133" transform="translate(285.59999999999997, 367.2) scale(1.7)" fill="#0f457b"></use><use xlink:href="#SvgjsG1133" transform="translate(326.4, 0) scale(1.7)" fill="#0f457b"></use><use xlink:href="#SvgjsG1132" transform="translate(326.4, 40.8) scale(1.7)" fill="#0f457b"></use><use xlink:href="#SvgjsG1132" transform="translate(326.4, 81.6) scale(1.7)" fill="#0f457b"></use><use xlink:href="#SvgjsG1134" transform="translate(326.4, 122.39999999999999) scale(1.7)" fill="#0f457b"></use><use xlink:href="#SvgjsG1132" transform="translate(326.4, 163.2) scale(1.7)" fill="#0f457b"></use><use xlink:href="#SvgjsG1134" transform="translate(326.4, 204) scale(1.7)" fill="#0f457b"></use><use xlink:href="#SvgjsG1132" transform="translate(326.4, 244.79999999999998) scale(1.7)" fill="#0f457b"></use><use xlink:href="#SvgjsG1133" transform="translate(326.4, 285.59999999999997) scale(1.7)" fill="#0f457b"></use><use xlink:href="#SvgjsG1132" transform="translate(326.4, 326.4) scale(1.7)" fill="#0f457b"></use><use xlink:href="#SvgjsG1133" transform="translate(326.4, 367.2) scale(1.7)" fill="#0f457b"></use><use xlink:href="#SvgjsG1133" transform="translate(367.2, 0) scale(1.7)" fill="#0f457b"></use><use xlink:href="#SvgjsG1134" transform="translate(367.2, 40.8) scale(1.7)" fill="#0f457b"></use><use xlink:href="#SvgjsG1134" transform="translate(367.2, 81.6) scale(1.7)" fill="#0f457b"></use><use xlink:href="#SvgjsG1134" transform="translate(367.2, 122.39999999999999) scale(1.7)" fill="#0f457b"></use><use xlink:href="#SvgjsG1132" transform="translate(367.2, 163.2) scale(1.7)" fill="#0f457b"></use><use xlink:href="#SvgjsG1133" transform="translate(367.2, 204) scale(1.7)" fill="#0f457b"></use><use xlink:href="#SvgjsG1132" transform="translate(367.2, 244.79999999999998) scale(1.7)" fill="#0f457b"></use><use xlink:href="#SvgjsG1133" transform="translate(367.2, 285.59999999999997) scale(1.7)" fill="#0f457b"></use><use xlink:href="#SvgjsG1134" transform="translate(367.2, 326.4) scale(1.7)" fill="#0f457b"></use><use xlink:href="#SvgjsG1132" transform="translate(367.2, 367.2) scale(1.7)" fill="#0f457b"></use></g></defs></svg>