<svg id="visual" viewBox="0 0 900 600" width="900" height="600" xmlns="http://www.w3.org/2000/svg" xmlns:xlink="http://www.w3.org/1999/xlink" version="1.1"><path d="M0 97L13.7 98C27.3 99 54.7 101 82 102C109.3 103 136.7 103 163.8 108C191 113 218 123 245.2 133C272.3 143 299.7 153 327 152C354.3 151 381.7 139 409 137C436.3 135 463.7 143 491 132C518.3 121 545.7 91 573 86C600.3 81 627.7 101 654.8 107C682 113 709 105 736.2 98C763.3 91 790.7 85 818 91C845.3 97 872.7 115 886.3 124L900 133L900 0L886.3 0C872.7 0 845.3 0 818 0C790.7 0 763.3 0 736.2 0C709 0 682 0 654.8 0C627.7 0 600.3 0 573 0C545.7 0 518.3 0 491 0C463.7 0 436.3 0 409 0C381.7 0 354.3 0 327 0C299.7 0 272.3 0 245.2 0C218 0 191 0 163.8 0C136.7 0 109.3 0 82 0C54.7 0 27.3 0 13.7 0L0 0Z" fill="#6198ff"></path><path d="M0 175L13.7 176C27.3 177 54.7 179 82 174C109.3 169 136.7 157 163.8 157C191 157 218 169 245.2 181C272.3 193 299.7 205 327 213C354.3 221 381.7 225 409 229C436.3 233 463.7 237 491 229C518.3 221 545.7 201 573 189C600.3 177 627.7 173 654.8 178C682 183 709 197 736.2 198C763.3 199 790.7 187 818 186C845.3 185 872.7 195 886.3 200L900 205L900 131L886.3 122C872.7 113 845.3 95 818 89C790.7 83 763.3 89 736.2 96C709 103 682 111 654.8 105C627.7 99 600.3 79 573 84C545.7 89 518.3 119 491 130C463.7 141 436.3 133 409 135C381.7 137 354.3 149 327 150C299.7 151 272.3 141 245.2 131C218 121 191 111 163.8 106C136.7 101 109.3 101 82 100C54.7 99 27.3 97 13.7 96L0 95Z" fill="#005fee"></path><path d="M0 397L13.7 397C27.3 397 54.7 397 82 396C109.3 395 136.7 393 163.8 393C191 393 218 395 245.2 394C272.3 393 299.7 389 327 383C354.3 377 381.7 369 409 374C436.3 379 463.7 397 491 394C518.3 391 545.7 367 573 341C600.3 315 627.7 287 654.8 277C682 267 709 275 736.2 282C763.3 289 790.7 295 818 310C845.3 325 872.7 349 886.3 361L900 373L900 203L886.3 198C872.7 193 845.3 183 818 184C790.7 185 763.3 197 736.2 196C709 195 682 181 654.8 176C627.7 171 600.3 175 573 187C545.7 199 518.3 219 491 227C463.7 235 436.3 231 409 227C381.7 223 354.3 219 327 211C299.7 203 272.3 191 245.2 179C218 167 191 155 163.8 155C136.7 155 109.3 167 82 172C54.7 177 27.3 175 13.7 174L0 173Z" fill="#004cbb"></path><path d="M0 523L13.7 524C27.3 525 54.7 527 82 528C109.3 529 136.7 529 163.8 524C191 519 218 509 245.2 507C272.3 505 299.7 511 327 519C354.3 527 381.7 537 409 538C436.3 539 463.7 531 491 532C518.3 533 545.7 543 573 544C600.3 545 627.7 537 654.8 530C682 523 709 517 736.2 522C763.3 527 790.7 543 818 547C845.3 551 872.7 543 886.3 539L900 535L900 371L886.3 359C872.7 347 845.3 323 818 308C790.7 293 763.3 287 736.2 280C709 273 682 265 654.8 275C627.7 285 600.3 313 573 339C545.7 365 518.3 389 491 392C463.7 395 436.3 377 409 372C381.7 367 354.3 375 327 381C299.7 387 272.3 391 245.2 392C218 393 191 391 163.8 391C136.7 391 109.3 393 82 394C54.7 395 27.3 395 13.7 395L0 395Z" fill="#005fee"></path><path d="M0 601L13.7 601C27.3 601 54.7 601 82 601C109.3 601 136.7 601 163.8 601C191 601 218 601 245.2 601C272.3 601 299.7 601 327 601C354.3 601 381.7 601 409 601C436.3 601 463.7 601 491 601C518.3 601 545.7 601 573 601C600.3 601 627.7 601 654.8 601C682 601 709 601 736.2 601C763.3 601 790.7 601 818 601C845.3 601 872.7 601 886.3 601L900 601L900 533L886.3 537C872.7 541 845.3 549 818 545C790.7 541 763.3 525 736.2 520C709 515 682 521 654.8 528C627.7 535 600.3 543 573 542C545.7 541 518.3 531 491 530C463.7 529 436.3 537 409 536C381.7 535 354.3 525 327 517C299.7 509 272.3 503 245.2 505C218 507 191 517 163.8 522C136.7 527 109.3 527 82 526C54.7 525 27.3 523 13.7 522L0 521Z" fill="#6198ff"></path></svg>